<svg viewBox="0 0 40 40" focusable="false" xmlns="http://www.w3.org/2000/svg">
    <path d="M40.0012 12.5729C40.0012 12.2061 39.9988 11.7088 39.9934 11.1029C39.9875 10.4642 39.9836 10.2044 39.9777 9.90244C39.9605 9.00395 39.9023 8.09688 39.75 7.28512C39.5836 6.4007 39.3593 5.59715 38.9507 4.7932C38.5374 3.97715 37.9706 3.27243 37.3565 2.64466C36.7276 2.03057 36.0225 1.46374 35.208 1.05044C34.404 0.643 33.6005 0.417599 32.716 0.251184C31.9047 0.0988333 30.9972 0.0406272 30.0987 0.0234389C29.7964 0.0175792 29.5366 0.0140631 28.8979 0.00781276C28.292 0.00234375 27.7947 0 27.4279 0H12.5729C12.2065 0 11.7092 0.00234375 11.1033 0.00781276C10.4646 0.0140631 10.2048 0.0175792 9.90244 0.0234389C9.00396 0.0406272 8.09688 0.0988333 7.28512 0.251184C6.4007 0.417599 5.59715 0.641828 4.7932 1.05044C3.97715 1.46374 3.27203 2.03057 2.64466 2.64466C2.03057 3.27399 1.46374 3.97871 1.05005 4.7932C0.643 5.59715 0.417208 6.4007 0.251184 7.28512C0.098442 8.09649 0.0406272 9.00395 0.0234389 9.90244C0.0175792 10.2044 0.0136724 10.4642 0.00781276 11.1029C0.0019531 11.7088 0 12.2061 0 12.5729V27.4271C0 27.7935 -1.19332e-07 28.2908 0.00781276 28.8971C0.0136724 29.5354 0.0175792 29.7956 0.0234389 30.0976C0.0406272 30.996 0.098442 31.9031 0.251184 32.7149C0.417208 33.5997 0.641828 34.4029 1.05005 35.2068C1.46374 36.0229 2.03057 36.728 2.64466 37.3553C3.2736 37.9694 3.97871 38.5366 4.7932 38.9499C5.59715 39.3574 6.4007 39.5828 7.28512 39.7488C8.0961 39.9016 9.00396 39.9594 9.90244 39.9766C10.2048 39.9824 10.4646 39.9863 11.1033 39.9922C11.7092 39.9981 12.2065 40 12.5729 40H27.4287C27.7955 40 28.2928 40 28.8987 39.9922C29.5374 39.9863 29.7972 39.9824 30.0995 39.9766C30.998 39.9594 31.9047 39.9016 32.7168 39.7488C33.6012 39.5828 34.4048 39.3582 35.2088 38.9499C36.0248 38.5366 36.7299 37.9694 37.3573 37.3553C37.9714 36.7264 38.5382 36.0213 38.9515 35.2068C39.359 34.4029 39.5844 33.5997 39.7508 32.7149C39.9031 31.9039 39.9613 30.996 39.9785 30.0976C39.9844 29.7952 39.9883 29.5354 39.9941 28.8971C39.9996 28.2908 40.002 27.7935 40.002 27.4271L40.0012 12.5729Z"
          fill="#7524F9">

    </path>
    <path fill-rule="evenodd" clip-rule="evenodd"
          d="M32.432 13.8397V15.2527C32.4318 15.3894 32.3956 15.5236 32.327 15.6418C32.2585 15.7601 32.1599 15.8581 32.0414 15.9262L27.4904 18.5544L31.557 20.8956C31.8233 21.0489 32.0444 21.2697 32.1982 21.5357C32.3521 21.8017 32.4331 22.1036 32.4332 22.4109V26.1767C32.4332 26.4844 32.3519 26.7867 32.1976 27.0529C32.0434 27.3192 31.8216 27.54 31.5546 27.6932L20.8576 33.8313C20.592 33.9836 20.2911 34.0635 19.985 34.0631C19.6789 34.0627 19.3782 33.9819 19.113 33.829L15.6113 31.807C15.5526 31.7725 15.504 31.7233 15.4702 31.6643C15.4364 31.6052 15.4187 31.5383 15.4187 31.4703C15.4187 31.4023 15.4364 31.3354 15.4702 31.2763C15.504 31.2173 15.5526 31.168 15.6113 31.1336L27.1693 24.4813C27.1986 24.464 27.2229 24.4394 27.2398 24.4099C27.2567 24.3804 27.2656 24.3469 27.2656 24.3129C27.2656 24.2789 27.2567 24.2455 27.2398 24.2159C27.2229 24.1864 27.1986 24.1618 27.1693 24.1445L22.878 21.6651C22.76 21.597 22.6261 21.5611 22.4897 21.5611C22.3534 21.5611 22.2195 21.597 22.1014 21.6651L10.3575 28.4303C10.2692 28.4811 10.1691 28.5078 10.0673 28.5078C9.9654 28.5078 9.86532 28.4811 9.77701 28.4303L8.44882 27.6693C8.18141 27.5162 7.95921 27.2951 7.80472 27.0284C7.65024 26.7618 7.56895 26.4591 7.56909 26.1509V24.6098C7.56915 24.5073 7.59623 24.4067 7.6476 24.318C7.69897 24.2293 7.77281 24.1557 7.86168 24.1047L24.6941 14.432C24.7235 14.4147 24.7478 14.3901 24.7647 14.3606C24.7816 14.331 24.7905 14.2976 24.7905 14.2636C24.7905 14.2296 24.7816 14.1961 24.7647 14.1666C24.7478 14.1371 24.7235 14.1125 24.6941 14.0952L20.3971 11.6076C20.2789 11.5396 20.1449 11.5037 20.0086 11.5037C19.8722 11.5037 19.7382 11.5396 19.6201 11.6076L8.14959 18.2029C8.09041 18.2362 8.02356 18.2536 7.95564 18.2532C7.88771 18.2528 7.82105 18.2347 7.76224 18.2007C7.70344 18.1667 7.65451 18.118 7.6203 18.0593C7.58608 18.0006 7.56776 17.934 7.56714 17.8661V13.8218C7.56718 13.5141 7.6484 13.2119 7.80258 12.9456C7.95677 12.6794 8.17847 12.4585 8.44531 12.3053L19.14 6.16867C19.4052 6.01607 19.7059 5.93576 20.0119 5.93576C20.3179 5.93576 20.6186 6.01607 20.8838 6.16867L31.5574 12.326C31.8232 12.4793 32.044 12.6999 32.1976 12.9657C32.3511 13.2314 32.432 13.5328 32.432 13.8397Z"
          fill="white">

    </path>
</svg>
