<svg viewBox="0 0 40 40" focusable="false" xmlns="http://www.w3.org/2000/svg">
    <path fill="#fff"
          d="M0 10C0 4.477 4.477 0 10 0h20c5.523 0 10 4.477 10 10v20c0 5.523-4.477 10-10 10H10C4.477 40 0 35.523 0 30V10z"></path>
    <path fill="#1D222A" fill-rule="evenodd"
          d="M27.69 18.213a1.67 1.67 0 112.363-2.362 1.67 1.67 0 01-2.362 2.362zm-5.61 5.61a1.253 1.253 0 111.772-1.772 1.253 1.253 0 01-1.771 1.772zm8.859-2.953A1.253 1.253 0 1132.71 19.1a1.253 1.253 0 01-1.771 1.771zm-2.953 2.953a1.253 1.253 0 111.771-1.772 1.253 1.253 0 01-1.771 1.772zm6.2-.295a.835.835 0 111.181-1.181.835.835 0 01-1.18 1.18zm-2.952 2.952a.835.835 0 111.18-1.18.835.835 0 01-1.18 1.18zm-6.496-5.314a1.67 1.67 0 112.362-2.363 1.67 1.67 0 01-2.362 2.363zm0-5.906a1.67 1.67 0 112.362-2.362 1.67 1.67 0 01-2.362 2.362zm-2.953 2.953a1.67 1.67 0 112.363-2.362 1.67 1.67 0 01-2.363 2.362zm-5.932 0a1.67 1.67 0 112.362-2.362 1.67 1.67 0 01-2.362 2.362zm-5.61 5.61a1.253 1.253 0 111.771-1.772 1.253 1.253 0 01-1.771 1.772zM19.1 20.87a1.253 1.253 0 111.771-1.771 1.253 1.253 0 01-1.771 1.771zm-2.953 2.953a1.253 1.253 0 111.772-1.772 1.253 1.253 0 01-1.772 1.772zm-11.515-.295a.835.835 0 111.181-1.182.835.835 0 01-1.181 1.182zm2.952 2.952a.835.835 0 111.181-1.18.835.835 0 01-1.18 1.18zm11.81 0a.835.835 0 111.182-1.18.835.835 0 01-1.181 1.18zM7.29 20.87A1.253 1.253 0 119.062 19.1 1.253 1.253 0 017.29 20.87zm5.61.296a1.67 1.67 0 112.362-2.363 1.67 1.67 0 01-2.362 2.363zm0-5.906a1.67 1.67 0 112.362-2.362A1.67 1.67 0 0112.9 15.26zm-2.952 2.953a1.67 1.67 0 112.362-2.362 1.67 1.67 0 01-2.362 2.362z"
          clip-rule="evenodd"></path>
</svg>
