<svg width="449" height="449" viewBox="0 0 449 449" fill="none" xmlns="http://www.w3.org/2000/svg">
<path d="M449 224.5C449 379.485 379.485 449 224.5 449C69.5151 449 0 379.485 0 224.5C0 69.5151 69.5151 0 224.5 0C379.485 0 449 69.5151 449 224.5Z" fill="#00B812"/>
<path d="M244.784 95.1958L182.329 95.1958L171.372 128.327H206.061V198.115H244.784V95.1958Z" fill="white"/>
<path fill-rule="evenodd" clip-rule="evenodd" d="M295.728 282.577C295.728 321.915 263.839 353.804 224.501 353.804C185.164 353.804 153.275 321.915 153.275 282.577C153.275 243.24 185.164 211.35 224.501 211.35C263.839 211.35 295.728 243.24 295.728 282.577ZM263.392 282.577C263.392 304.056 245.98 321.468 224.501 321.468C203.022 321.468 185.611 304.056 185.611 282.577C185.611 261.098 203.022 243.686 224.501 243.686C245.98 243.686 263.392 261.098 263.392 282.577Z" fill="white"/>
</svg>
