<svg  viewBox="0 0 40 40" focusable="false" xmlns="http://www.w3.org/2000/svg" >
    <path d="M13.4591 16.4337H13.466C13.4591 16.3927 13.4591 16.3449 13.4591 16.3038V16.4337Z" fill="#29AEFF"></path>
    <path d="M27.0669 17.7323H19.5354V31.3261C19.5354 31.9687 20.0548 32.4881 20.6972 32.4881H25.9051C26.5475 32.4881 27.0669 31.9687 27.0669 31.3261V17.7323Z"
          fill="#2980FE"></path>
    <path d="M15.8992 8H15.6463H2.16178C1.51941 8 1 8.51941 1 9.16196V13.8777C1 14.5202 1.51941 15.0396 2.16178 15.0396H5.32621H6.58377V16.4339V31.3604C6.58377 32.0028 7.10318 32.5222 7.74574 32.5222H12.6939C13.3363 32.5222 13.8557 32.0028 13.8557 31.3604V16.4339V16.304V15.0396H15.1132H15.6259H15.8788C17.8197 15.0396 19.3984 13.4608 19.3984 11.5198C19.419 9.57884 17.8402 8 15.8992 8Z"
          fill="#2980FE"></path>
    <path d="M27.0732 17.7323V27.2187C27.333 27.2801 27.5996 27.3279 27.8731 27.369C28.2556 27.4237 28.6521 27.4578 29.0485 27.4648C29.069 27.4648 29.0896 27.4648 29.1169 27.4648V19.9194C27.9754 19.8442 27.0732 18.8943 27.0732 17.7323Z"
          fill="url(#paint0_linear_641_53)"></path>
    <path d="M29.2677 8C23.8957 8 19.5354 12.3605 19.5354 17.7325C19.5354 22.3526 22.7544 26.2209 27.0738 27.2186V17.7325C27.0738 16.5227 28.0579 15.5384 29.2677 15.5384C30.4775 15.5384 31.4615 16.5227 31.4615 17.7325C31.4615 18.7507 30.7712 19.605 29.8281 19.8511C29.6504 19.8989 29.4591 19.9263 29.2677 19.9263V27.4648C29.4591 27.4648 29.6435 27.4578 29.8281 27.4511C34.9403 27.1572 39 22.9198 39 17.7325C39.0069 12.3605 34.6464 8 29.2677 8Z"
          fill="#2980FE"></path>
    <path d="M29.2675 27.4646V19.9261C29.2128 19.9261 29.165 19.9261 29.1102 19.9192V27.4646C29.165 27.4646 29.2197 27.4646 29.2675 27.4646Z"
          fill="#2980FE"></path>
    <defs>
        <linearGradient id="paint0_linear_641_53" x1="29.2703" y1="22.6" x2="27.0743" y2="22.6"
                        gradientUnits="userSpaceOnUse">
            <stop stop-color="#2980FE"></stop>
            <stop offset="0.9667" stop-color="#6CA8FF"></stop>
            <stop offset="1" stop-color="#2980FE"></stop>
        </linearGradient>
    </defs>
</svg>
