<svg viewBox="0 0 40 40" focusable="false" xmlns="http://www.w3.org/2000/svg">
    <path fill="#3389FB"
          d="M8.68 12.476c6.252-6.079 16.388-6.079 22.639 0l.752.731a.763.763 0 010 1.1l-2.573 2.503a.408.408 0 01-.566 0l-1.036-1.006c-4.36-4.241-11.431-4.241-15.793 0l-1.108 1.078a.408.408 0 01-.566 0l-2.574-2.503a.763.763 0 010-1.1l.826-.803zm27.962 5.175l2.29 2.227a.763.763 0 010 1.101L28.604 31.022a.817.817 0 01-1.132 0l-7.33-7.128a.204.204 0 00-.284 0l-7.33 7.128a.817.817 0 01-1.132 0L1.068 20.979a.763.763 0 010-1.1l2.29-2.228a.817.817 0 011.132 0l7.33 7.128a.204.204 0 00.284 0l7.33-7.128a.817.817 0 011.132 0l7.33 7.128a.204.204 0 00.283 0l7.33-7.128a.816.816 0 011.133 0z"></path>
</svg>
