<svg viewBox="0 0 40 40" focusable="false" xmlns="http://www.w3.org/2000/svg">
    <path fill="#E17726" d="M36.011 3.333l-13.89 10.295L24.7 7.56l11.31-4.228z"></path>
    <path fill="#E27625"
          d="M4.003 3.333l13.753 10.39-2.457-6.162L4.003 3.333zM31.015 27.202l-3.692 5.655 7.906 2.183 2.25-7.714-6.464-.124zM2.534 27.326L4.77 35.04l7.906-2.183L9 27.202l-6.465.124z"></path>
    <path fill="#E27625"
          d="M12.252 17.65l-2.21 3.321 7.837.357-.274-8.441-5.353 4.763zM27.762 17.65l-5.45-4.86-.191 8.538 7.837-.357-2.196-3.322zM12.677 32.857l4.722-2.292-4.063-3.184-.659 5.476zM22.6 30.565l4.723 2.292-.66-5.476-4.062 3.184z"></path>
    <path fill="#D5BFB2"
          d="M27.323 32.858L22.6 30.565l.37 3.075-.04 1.29 4.392-2.072zM12.677 32.858l4.392 2.072-.027-1.29.357-3.075-4.722 2.293z"></path>
    <path fill="#233447"
          d="M17.152 25.35l-3.926-1.154L16 22.92l1.153 2.43zM22.848 25.35L24 22.92l2.8 1.276-3.953 1.153z"></path>
    <path fill="#CC6228"
          d="M12.677 32.857l.687-5.655-4.365.124 3.678 5.531zM26.637 27.202l.686 5.655 3.692-5.531-4.378-.124zM29.958 20.97l-7.837.358.727 4.021 1.153-2.429 2.8 1.276 3.157-3.225zM13.226 24.197L16 22.92l1.153 2.43.727-4.022-7.837-.357 3.184 3.226z"></path>
    <path fill="#E27525"
          d="M10.042 20.97l3.294 6.41-.11-3.183-3.184-3.226zM26.801 24.197l-.137 3.184 3.294-6.41-3.157 3.226zM17.88 21.328l-.728 4.021.92 4.75.192-6.26-.385-2.511zM22.12 21.328l-.37 2.498.178 6.273.92-4.75-.727-4.021z"></path>
    <path fill="#F5841F"
          d="M22.848 25.35l-.92 4.749.673.466 4.063-3.184.137-3.184-3.953 1.153zM13.226 24.197l.11 3.184 4.063 3.184.672-.466-.92-4.75-3.925-1.152z"></path>
    <path fill="#C0AC9D"
          d="M22.93 34.93l.041-1.29-.343-.302h-5.257l-.329.302.027 1.29-4.392-2.073 1.537 1.263 3.116 2.155h5.34l3.115-2.155 1.538-1.263-4.393 2.073z"></path>
    <path fill="#161616"
          d="M22.6 30.565l-.672-.466h-3.857l-.672.466-.357 3.075.33-.302h5.256l.343.302-.37-3.075z"></path>
    <path fill="#763E1A"
          d="M36.587 14.3l1.167-5.682-1.743-5.285-13.41 9.952 5.16 4.364 7.275 2.128 1.606-1.88-.7-.508 1.126-1.016-.851-.673 1.112-.837-.742-.563zM2.246 8.618l1.18 5.682-.755.563 1.112.837-.85.673 1.125 1.016-.7.507 1.606 1.88 7.288-2.127 5.147-4.364L4.003 3.333 2.246 8.618z"></path>
    <path fill="#F5841F"
          d="M35.036 19.777l-7.274-2.128 2.196 3.322-3.294 6.41 4.35-.055h6.466l-2.444-7.549zM12.252 17.65l-7.289 2.127-2.43 7.55H9l4.337.054-3.294-6.41 2.21-3.322zM22.12 21.328l.48-8.044 2.101-5.723h-9.402l2.1 5.723.48 8.044.179 2.525.013 6.245h3.857l.014-6.245.178-2.525z"></path>
</svg>
